# This file uses meters as units for non-parametric coordinates.

mtllib ventMaze2_levelFour_jg.mtl
g default
v 303.709401 72.535064 -2088.651684
v 426.851640 72.535064 -2022.915000
v 303.709401 172.535064 -2088.651684
v 426.851640 172.535064 -2022.915000
v 303.983338 172.406402 -2222.907471
v 426.851640 172.535064 -2157.170787
v 303.983491 72.307357 -2222.907471
v 426.851640 72.535064 -2157.170787
v 556.117013 72.535064 -2157.170787
v 556.117013 72.535064 -2022.915000
v 556.117013 172.535064 -2157.170787
v 556.117013 172.535064 -2022.915000
v 195.175835 72.307357 -2222.907471
v 195.166543 72.535064 -2088.651684
v 195.166543 172.535064 -2088.651684
v 195.175622 172.406402 -2222.907471
v 303.709401 72.535064 -1900.171342
v 303.709401 172.535064 -1900.171342
v 195.166543 172.535064 -1900.171342
v 195.166543 72.535064 -1900.171342
v 671.280953 72.535064 -2157.170787
v 671.280953 72.535064 -2022.915000
v 671.280953 172.535064 -2157.170787
v 671.280953 172.535064 -2022.915000
v 556.117013 72.535064 -1792.409244
v 556.117013 172.535064 -1792.409244
v 671.280953 72.535064 -1792.409244
v 671.280953 172.535064 -1792.409244
v 556.117013 72.535064 -1915.292799
v 671.280953 72.535064 -1915.292799
v 671.280953 172.535064 -1915.292799
v 556.117013 172.535064 -1915.292799
v 803.240304 72.535064 -1915.292799
v 803.240304 172.535064 -1915.292799
v 803.240304 172.535064 -1792.409244
v 803.240304 72.535064 -1792.409244
v 671.280953 72.535064 -1461.102847
v 671.280953 172.535064 -1461.102847
v 803.240304 72.535064 -1461.102847
v 803.240304 172.535064 -1461.102847
v 671.280953 72.535064 -1591.278850
v 803.240304 72.535064 -1591.278850
v 803.240304 172.535064 -1591.278850
v 671.280953 172.535064 -1591.278850
v 328.579392 172.535064 -1591.278850
v 328.579392 72.535064 -1591.278850
v 328.579392 72.535064 -1461.102847
v 328.579392 172.535064 -1461.102847
v 429.330354 172.535064 -1591.278850
v 429.330354 72.535064 -1591.278850
v 429.330354 72.535064 -1461.102847
v 429.330354 172.535064 -1461.102847
v 439.498780 61.522216 -1273.987187
v 448.260842 171.294830 -1292.130870
v 352.966248 171.294830 -1340.685944
v 343.131707 61.522216 -1323.088329
v 422.286019 172.535064 -1915.292799
v 422.286019 72.535064 -1915.292799
v 422.286019 72.535064 -1792.409244
v 422.286019 172.535064 -1792.409244
v 556.117013 72.535064 -1656.518528
v 556.117013 172.535064 -1656.518528
v 422.286019 172.535064 -1656.518528
v 422.286019 72.535064 -1656.518528
v 285.283273 72.535064 -1792.409244
v 285.283273 172.535064 -1792.409244
v 285.283273 72.535064 -1656.518528
v 285.283273 172.535064 -1656.518528
vt 0.367969 0.574883
vt 0.440319 0.574883
vt 0.440319 0.647232
vt 0.367969 0.647232
vt 0.367969 0.516886
vt 0.440319 0.516886
vt 0.532906 0.507109
vt 0.605327 0.507109
vt 0.605420 0.579458
vt 0.533071 0.579458
vt 0.605420 0.681029
vt 0.533071 0.681029
vt 0.211000 0.618457
vt 0.211000 0.516886
vt 0.283349 0.516886
vt 0.283349 0.618457
vt 0.547850 0.757369
vt 0.481629 0.757369
vt 0.481629 0.685020
vt 0.547850 0.685020
vt 0.768525 0.751868
vt 0.768525 0.685647
vt 0.840874 0.685647
vt 0.840874 0.751868
vt 0.768525 0.577259
vt 0.840874 0.577259
vt 0.768525 0.507109
vt 0.840874 0.507109
vt 0.613686 0.766065
vt 0.555689 0.766065
vt 0.555689 0.693715
vt 0.613686 0.693715
vt 0.526771 0.507109
vt 0.526771 0.577259
vt 0.454422 0.577259
vt 0.454422 0.507109
vt 0.525874 0.642151
vt 0.446454 0.651634
vt 0.361834 0.516886
vt 0.361834 0.625274
vt 0.289485 0.625274
vt 0.289485 0.516886
vt 0.132516 0.617721
vt 0.124548 0.516886
vt 0.203968 0.526664
vt 0.204865 0.617721
vt 0.321815 0.724454
vt 0.321815 0.651224
vt 0.394164 0.651224
vt 0.394164 0.724454
vt 0.474071 0.655626
vt 0.474071 0.728856
vt 0.401722 0.728856
vt 0.401722 0.655626
vt 0.527027 0.073878
vt 0.527225 0.001529
vt 0.616120 0.036954
vt 0.616120 0.109303
vt 0.448497 0.073878
vt 0.448504 0.001529
vt 0.709642 0.036954
vt 0.709642 0.109303
vt 0.527027 0.175449
vt 0.448497 0.175449
vt 0.792962 0.036954
vt 0.792962 0.109303
vt 0.792962 0.167300
vt 0.709642 0.167300
vt 0.792962 0.233521
vt 0.709642 0.233521
vt 0.888434 0.167300
vt 0.888434 0.233521
vt 0.612816 0.233521
vt 0.612816 0.167300
vt 0.888434 0.341909
vt 0.792962 0.341909
vt 0.709642 0.306752
vt 0.612816 0.306752
vt 0.888434 0.412059
vt 0.792962 0.412059
vt 0.513696 0.306752
vt 0.513696 0.233521
vt 0.617913 0.412059
vt 0.617913 0.341909
vt 0.545020 0.412059
vt 0.545020 0.341909
vt 0.631609 0.503117
vt 0.562664 0.476951
vt 0.080720 0.512895
vt 0.080522 0.440545
vt 0.169615 0.405120
vt 0.169615 0.477470
vt 0.001999 0.512895
vt 0.001992 0.440545
vt 0.263137 0.405120
vt 0.263137 0.477470
vt 0.001992 0.338975
vt 0.080522 0.338975
vt 0.346457 0.405120
vt 0.346457 0.477470
vt 0.263137 0.347124
vt 0.346457 0.347124
vt 0.263137 0.280903
vt 0.346457 0.280903
vt 0.166311 0.347124
vt 0.166311 0.280903
vt 0.441929 0.280903
vt 0.441929 0.347124
vt 0.166311 0.207672
vt 0.263137 0.207672
vt 0.346457 0.172515
vt 0.441929 0.172515
vt 0.067191 0.280903
vt 0.067191 0.207672
vt 0.346457 0.102364
vt 0.441929 0.102364
vt 0.171408 0.172515
vt 0.171408 0.102364
vt 0.098515 0.172515
vt 0.098515 0.102364
vt 0.109044 0.027989
vt 0.178765 0.001529
vt 0.683905 0.689724
vt 0.611556 0.689724
vt 0.611556 0.600631
vt 0.683905 0.600631
vt 0.611556 0.507109
vt 0.683905 0.507109
vt 0.997915 0.541779
vt 0.925494 0.541779
vt 0.925659 0.452885
vt 0.998008 0.452885
vt 0.925659 0.359362
vt 0.998008 0.359362
vt 0.925659 0.276042
vt 0.998008 0.276042
vt 0.314257 0.629265
vt 0.314257 0.707795
vt 0.241908 0.707795
vt 0.241908 0.629265
vt 0.162001 0.705768
vt 0.162001 0.622448
vt 0.234350 0.622448
vt 0.234350 0.705768
vt 0.082094 0.717184
vt 0.082094 0.621713
vt 0.154443 0.621713
vt 0.154443 0.717184
vt 0.894807 0.097001
vt 0.894807 0.001529
vt 0.967156 0.001529
vt 0.967156 0.097001
vt 0.967156 0.272050
vt 0.894807 0.272050
vt 0.919359 0.682158
vt 0.919359 0.755051
vt 0.847009 0.755051
vt 0.847009 0.682158
vt 0.919359 0.507109
vt 0.847009 0.507109
vt 0.074341 0.619998
vt 0.074341 0.716824
vt 0.001992 0.716824
vt 0.001992 0.619998
vt 0.762389 0.507109
vt 0.762389 0.603934
vt 0.690040 0.603934
vt 0.690040 0.507109
vt 0.762389 0.703055
vt 0.690040 0.703055
vt 0.118413 0.516886
vt 0.118413 0.616007
vt 0.046063 0.616007
vt 0.046063 0.516886
vn 0.470927 0.000000 -0.882172
vn 0.470927 0.000000 -0.882172
vn 0.252031 0.000000 -0.967719
vn 0.252031 0.000000 -0.967719
vn 0.000098 -1.000000 0.000429
vn 0.000124 -1.000000 0.000737
vn 0.000145 -1.000000 0.000260
vn 0.000112 -1.000000 0.000201
vn -0.471744 -0.000000 0.881736
vn -0.471744 -0.000000 0.881736
vn -0.252480 -0.000000 0.967602
vn -0.252273 -0.000000 0.967656
vn -0.000219 0.999999 -0.001304
vn -0.000174 1.000000 -0.000759
vn -0.000198 1.000000 -0.000356
vn -0.000256 1.000000 -0.000460
vn -1.000000 0.000000 0.000000
vn -1.000000 0.000000 0.000000
vn -1.000000 0.000000 0.000000
vn -1.000000 0.000000 0.000000
vn 1.000000 0.000001 0.000068
vn 1.000000 0.000001 0.000068
vn 1.000000 0.000000 0.000028
vn 1.000000 0.000000 0.000028
vn 0.000000 1.000000 0.000000
vn 0.000000 1.000000 0.000000
vn 0.000000 0.000000 1.000000
vn 0.000000 0.000000 1.000000
vn 0.000000 -1.000000 0.000000
vn 0.000000 -1.000000 0.000000
vn 0.000000 0.000000 -1.000000
vn 0.000000 0.000000 -1.000000
vn 0.000000 0.999999 -0.001696
vn 0.000000 1.000000 -0.000706
vn 0.000000 0.000000 -1.000000
vn 0.000000 0.000000 -1.000000
vn 0.000000 0.000000 -1.000000
vn 0.000000 0.000000 -1.000000
vn 0.000000 -1.000000 0.000399
vn 0.000000 -1.000000 0.000958
vn -1.000000 0.000000 0.000000
vn -1.000000 0.000000 0.000000
vn -1.000000 0.000000 0.000000
vn -1.000000 0.000000 0.000000
vn 0.000000 -1.000000 0.000000
vn 0.000000 -1.000000 0.000000
vn 1.000000 0.000000 0.000000
vn 1.000000 0.000000 0.000000
vn 0.000000 1.000000 0.000000
vn 0.000000 1.000000 0.000000
vn 0.000000 1.000000 0.000000
vn 0.000000 1.000000 0.000000
vn 0.000000 0.000000 1.000000
vn 0.000000 0.000000 1.000000
vn 0.000000 -1.000000 0.000000
vn 0.000000 -1.000000 0.000000
vn 0.000000 0.000000 -1.000000
vn 0.000000 0.000000 -1.000000
vn 0.000000 0.000000 -1.000000
vn 0.000000 0.000000 -1.000000
vn 1.000000 0.000000 0.000000
vn 1.000000 0.000000 0.000000
vn 1.000000 0.000000 0.000000
vn 1.000000 0.000000 0.000000
vn 0.000000 1.000000 0.000000
vn 0.000000 1.000000 0.000000
vn 0.000000 1.000000 0.000000
vn 0.000000 1.000000 0.000000
vn -1.000000 0.000000 0.000000
vn -1.000000 0.000000 0.000000
vn -1.000000 0.000000 0.000000
vn -1.000000 0.000000 0.000000
vn 0.000000 -1.000000 0.000000
vn 0.000000 -1.000000 0.000000
vn 0.000000 -1.000000 0.000000
vn 0.000000 -1.000000 0.000000
vn -1.000000 0.000000 0.000000
vn -1.000000 0.000000 0.000000
vn 1.000000 0.000000 0.000000
vn 1.000000 0.000000 0.000000
vn 1.000000 0.000000 0.000000
vn 1.000000 0.000000 0.000000
vn 0.000000 0.000000 1.000000
vn 0.000000 0.000000 1.000000
vn 0.000000 0.000000 1.000000
vn 0.000000 0.000000 1.000000
vn 0.000000 -1.000000 0.000000
vn 0.000000 -1.000000 0.000000
vn 0.000000 0.000000 -1.000000
vn 0.000000 0.000000 -1.000000
vn 0.000000 0.000000 -1.000000
vn 0.000000 0.000000 -1.000000
vn 0.000000 1.000000 0.000000
vn 0.000000 1.000000 0.000000
vn 1.000000 0.000000 0.000000
vn 0.996531 -0.030190 -0.077551
vn 0.996276 -0.031277 -0.080343
vn 1.000000 0.000000 0.000000
vn 0.000000 1.000000 0.000000
vn 0.000000 1.000000 0.000000
vn 0.000000 1.000000 0.000000
vn 0.000000 1.000000 0.000000
vn -1.000000 0.000000 0.000000
vn -1.000000 0.000000 0.000000
vn -1.000000 0.000000 0.000000
vn -1.000000 0.000000 0.000000
vn 0.000000 -1.000000 0.000000
vn 0.000000 -1.000000 0.000000
vn 0.000000 -1.000000 0.000000
vn 0.000000 -1.000000 0.000000
vn 1.000000 0.000000 0.000000
vn 1.000000 0.000000 0.000000
vn 1.000000 0.000000 0.000000
vn 1.000000 0.000000 0.000000
vn 0.000000 0.000000 1.000000
vn 0.000000 0.000000 1.000000
vn 0.000000 0.000000 1.000000
vn 0.000000 0.000000 1.000000
vn 0.000000 1.000000 0.000000
vn 0.000000 1.000000 0.000000
vn -0.008972 0.999311 0.036017
vn -0.004632 0.999816 0.018595
vn 0.000554 -0.999997 -0.002235
vn 0.001023 -0.999991 -0.004129
vn 0.000000 -1.000000 0.000000
vn 0.000000 -1.000000 0.000000
vn 0.000000 0.000000 1.000000
vn 0.000000 0.000000 1.000000
vn 0.000000 0.000000 -1.000000
vn 0.000000 0.000000 -1.000000
vn -0.995355 0.048756 0.083016
vn -0.995355 0.048756 0.083016
vn -0.995355 0.048756 0.083016
vn -0.995355 0.048756 0.083016
vn 0.002205 -0.999958 -0.008901
vn 0.002205 -0.999958 -0.008901
vn 0.986702 -0.058965 -0.151467
vn 0.986702 -0.058965 -0.151467
vn -0.017157 0.997478 0.068878
vn -0.017157 0.997478 0.068878
vn 0.000000 0.000000 1.000000
vn 0.000000 0.000000 1.000000
vn 0.000000 0.000000 1.000000
vn 0.000000 0.000000 1.000000
vn 0.000000 1.000000 0.000000
vn 0.000000 1.000000 0.000000
vn 0.000000 0.000000 -1.000000
vn 0.000000 0.000000 -1.000000
vn 0.000000 0.000000 -1.000000
vn 0.000000 0.000000 -1.000000
vn 0.000000 -1.000000 0.000000
vn 0.000000 -1.000000 0.000000
vn -1.000000 0.000000 0.000000
vn -1.000000 0.000000 0.000000
vn -1.000000 0.000000 0.000000
vn -1.000000 0.000000 0.000000
vn 0.000000 -1.000000 0.000000
vn 0.000000 -1.000000 0.000000
vn 1.000000 0.000000 0.000000
vn 1.000000 0.000000 0.000000
vn 1.000000 0.000000 0.000000
vn 1.000000 0.000000 0.000000
vn 0.000000 1.000000 0.000000
vn 0.000000 1.000000 0.000000
vn 0.000000 0.000000 1.000000
vn 0.000000 0.000000 1.000000
vn 0.000000 0.000000 1.000000
vn 0.000000 0.000000 1.000000
vn 0.000000 1.000000 0.000000
vn 0.000000 1.000000 0.000000
vn 0.000000 0.000000 -1.000000
vn 0.000000 0.000000 -1.000000
vn 0.000000 -1.000000 0.000000
vn 0.000000 -1.000000 0.000000
s 1
g ventMaze2_levelFour_jg:ventMaze2_levelFour_jg:pCube2
usemtl ventMaze2_levelFour_maze1
f 1/123/1 3/124/2 4/125/3 2/126/4
s 2
f 3/55/5 5/56/6 6/57/7 4/58/8
s 3
f 5/129/9 7/130/10 8/131/11 6/132/12
s 4
f 7/89/13 1/90/14 2/91/15 8/92/16
s 5
f 22/1/17 24/2/18 23/3/19 21/4/20
s 6
f 13/7/21 16/8/22 15/9/23 14/10/24
s 4
f 2/91/15 10/95/25 9/96/26 8/92/16
s 3
f 8/131/11 9/133/27 11/134/28 6/132/12
s 2
f 6/57/7 11/61/29 12/62/30 4/58/8
s 1
f 4/125/3 12/127/31 10/128/32 2/126/4
s 4
f 7/89/13 13/93/33 14/94/34 1/90/14
s off
f 17/137/35 20/138/36 19/139/37 18/140/38
s 2
f 3/55/5 15/59/39 16/60/40 5/56/6
s off
f 1/13/41 17/14/42 18/15/43 3/16/44
s 2
f 3/55/5 18/63/45 19/64/46 15/59/39
s 6
f 15/9/23 19/11/47 20/12/48 14/10/24
s 4
f 14/94/34 20/97/49 17/98/50 1/90/14
f 10/95/25 22/99/51 21/100/52 9/96/26
s 3
f 9/133/27 21/135/53 23/136/54 11/134/28
s 2
f 11/61/29 23/65/55 24/66/56 12/62/30
s off
f 26/141/57 28/142/58 27/143/59 25/144/60
f 57/17/61 60/18/62 59/19/63 58/20/64
s 4
f 29/101/65 25/103/66 27/104/67 30/102/68
s 8
f 33/21/69 36/22/70 35/23/71 34/24/72
s 2
f 31/67/73 28/69/74 26/70/75 32/68/76
s 4
f 10/95/25 29/101/65 30/102/68 22/99/51
s 5
f 22/1/17 30/5/77 31/6/78 24/2/18
s 2
f 24/66/56 31/67/73 32/68/76 12/62/30
s off
f 12/29/79 32/30/80 29/31/81 10/32/82
f 30/145/83 33/146/84 34/147/85 31/148/86
s 2
f 31/67/73 34/71/87 35/72/88 28/69/74
s 10
f 38/149/89 40/150/90 39/151/91 37/152/92
s 4
f 27/104/67 36/107/93 33/108/94 30/102/68
s 11
f 45/33/95 48/34/96 47/35/97 46/36/98
s 4
f 41/111/99 37/115/100 39/116/101 42/112/102
s 8
f 42/25/103 39/27/104 40/28/105 43/26/106
s 2
f 43/75/107 40/79/108 38/80/109 44/76/110
s 4
f 27/104/67 41/111/99 42/112/102 36/107/93
s 8
f 36/22/70 42/25/103 43/26/106 35/23/71
s 2
f 35/72/88 43/75/107 44/76/110 28/69/74
s off
f 28/39/111 44/40/112 41/41/113 27/42/114
s 14
f 49/155/115 45/156/116 46/157/117 50/158/118
s 4
f 50/117/119 46/119/120 47/120/121 51/118/122
s 2
f 52/83/123 48/85/124 45/86/125 49/84/126
s 14
f 44/159/127 49/155/115 50/158/118 41/160/128
s 4
f 41/111/99 50/117/119 51/118/122 37/115/100
s 10
f 37/152/92 51/153/129 52/154/130 38/149/89
s 2
f 38/80/109 52/83/123 49/84/126 44/76/110
s off
f 51/43/131 53/44/132 54/45/133 52/46/134
s 2
f 52/83/123 54/87/135 55/88/136 48/85/124
s 11
f 48/34/96 55/37/137 56/38/138 47/35/97
s 4
f 47/120/121 56/121/139 53/122/140 51/118/122
s off
f 32/161/141 57/162/142 58/163/143 29/164/144
s 4
f 29/101/65 58/105/145 59/106/146 25/103/66
s 17
f 61/165/147 64/166/148 63/167/149 62/168/150
s 2
f 26/70/75 60/73/151 57/74/152 32/68/76
s off
f 25/47/153 61/48/154 62/49/155 26/50/156
s 2
f 26/70/75 62/77/157 63/78/158 60/73/151
s off
f 66/51/159 68/52/160 67/53/161 65/54/162
s 4
f 59/106/146 64/109/163 61/110/164 25/103/66
s off
f 60/171/165 66/172/166 65/173/167 59/174/168
s 4
f 59/106/146 65/113/169 67/114/170 64/109/163
s 17
f 64/166/148 67/169/171 68/170/172 63/167/149
s 2
f 63/78/158 68/81/173 66/82/174 60/73/151
